<?xml version="1.0" encoding="UTF-8"?>
<svg width="278px" height="211px" viewBox="0 0 278 211" version="1.1" xmlns="http://www.w3.org/2000/svg" xmlns:xlink="http://www.w3.org/1999/xlink">
    <!-- Generator: Sketch 51.3 (57544) - http://www.bohemiancoding.com/sketch -->
    <title>upload300</title>
    <desc>Created with Sketch.</desc>
    <defs>
        <path d="M10.67,14.205 C9.52331879,14.205 8.59375,13.190925 8.59375,11.94 C8.59375,10.689075 9.52331879,9.675 10.67,9.675 C11.8166812,9.675 12.74625,10.689075 12.74625,11.94 C12.74625,12.5407153 12.5275029,13.116827 12.1381305,13.5415969 C11.748758,13.9663668 11.2206557,14.205 10.67,14.205 Z M10.67,8.205 C8.77152117,8.205 7.2325,9.88393219 7.2325,11.955 C7.2325,14.0260678 8.77152117,15.705 10.67,15.705 C12.5684788,15.705 14.1075,14.0260678 14.1075,11.955 C14.1111563,10.9578418 13.7506069,10.0001565 13.1055539,9.29364756 C12.4605008,8.58713858 11.584069,8.18999202 10.67,8.19 L10.67,8.205 Z M10.67,21.705 C5.72636113,21.705 1.71875,17.3330606 1.71875,11.94 C1.71875,6.54693942 5.72636113,2.175 10.67,2.175 C15.6136389,2.175 19.62125,6.54693942 19.62125,11.94 C19.6136783,17.3296355 15.6104992,21.69674 10.67,21.705 Z M10.67,0.705 C4.97456352,0.705 0.3575,5.74179656 0.3575,11.955 C0.3575,18.1682034 4.97456352,23.205 10.67,23.205 C16.3654365,23.205 20.9825,18.1682034 20.9825,11.955 C20.9861499,8.96871641 19.901269,6.10337984 17.9669043,3.99035024 C16.0325397,1.87732065 13.4074291,0.689997346 10.67,0.69 L10.67,0.705 Z" id="path-1"></path>
        <rect id="path-3" x="0.045" y="0.44" width="22" height="24"></rect>
        <rect id="path-5" x="0.045" y="0.44" width="35.75" height="39"></rect>
        <rect id="path-7" x="0.045" y="0.44" width="22" height="24"></rect>
        <rect id="path-9" x="0.045" y="0.44" width="22" height="24"></rect>
        <rect id="path-11" x="0.045" y="0.44" width="22" height="24"></rect>
    </defs>
    <g id="Page-1" stroke="none" stroke-width="1" fill="none" fill-rule="evenodd">
        <g id="upload300">
            <rect id="Rectangle-path" fill="#1E0071" fill-rule="nonzero" x="0.8" y="10.56" width="200" height="200"></rect>
            <rect id="Rectangle-path" x="10.8" y="0.56" width="200" height="200"></rect>
            <rect id="Rectangle-path" fill="#4100F5" fill-rule="nonzero" x="10.8" y="0.56" width="200" height="200"></rect>
            <g id="Group" transform="translate(73.000000, 130.000000)">
                <g fill-rule="nonzero" id="Shape">
                    <path d="M28.625,59 C13.3681338,59 1,46.0162577 1,30 C1,13.9837423 13.3681338,1 28.625,1 L177.375,1 C192.631866,1 205,13.9837423 205,30 C205,46.0162577 192.631866,59 177.375,59 L28.625,59 Z" fill="#FFFFFF"></path>
                    <path d="M176.724138,1.5 C191.559649,1.5 203.586207,14.2598846 203.586207,30 C203.586207,45.7401154 191.559649,58.5 176.724138,58.5 L28.2758621,58.5 C13.440351,58.5 1.4137931,45.7401154 1.4137931,30 C1.4137931,14.2598846 13.440351,1.5 28.2758621,1.5 L176.724138,1.5 Z M176.724138,0 L28.2758621,0 C12.6595347,0 0,13.4314575 0,30 C0,46.5685425 12.6595347,60 28.2758621,60 L176.724138,60 C192.340465,60 205,46.5685425 205,30 C205,13.4314575 192.340465,0 176.724138,0 Z" fill="#BDBDBD"></path>
                </g>
                <g id="Clipped" transform="translate(20.000000, 18.000000)">
                    <mask id="mask-2" fill="white">
                        <use xlink:href="#path-1"></use>
                    </mask>
                    <g id="Shape"></g>
                    <g mask="url(#mask-2)">
                        <g transform="translate(-0.375000, -0.500000)">
                            <mask id="mask-4" fill="white">
                                <use xlink:href="#path-3"></use>
                            </mask>
                            <g id="Rectangle-path" stroke="none" fill="none"></g>
                            <g id="Clipped" stroke="none" stroke-width="1" fill="none" fill-rule="evenodd" mask="url(#mask-4)">
                                <g transform="translate(-6.875000, -7.500000)">
                                    <mask id="mask-6" fill="white">
                                        <use xlink:href="#path-5"></use>
                                    </mask>
                                    <g id="Rectangle-path" stroke="none" fill="none"></g>
                                    <g id="Group" stroke="none" stroke-width="1" fill="none" fill-rule="evenodd" mask="url(#mask-6)">
                                        <g transform="translate(6.875000, 7.500000)" id="Clipped">
                                            <g>
                                                <mask id="mask-8" fill="white">
                                                    <use xlink:href="#path-7"></use>
                                                </mask>
                                                <g id="Rectangle-path"></g>
                                                <rect id="Rectangle-path" fill="#000000" fill-rule="nonzero" mask="url(#mask-8)" x="-6.1425" y="-6.31" width="34.375" height="37.5"></rect>
                                            </g>
                                            <g>
                                                <mask id="mask-10" fill="white">
                                                    <use xlink:href="#path-9"></use>
                                                </mask>
                                                <g id="Rectangle-path"></g>
                                                <g mask="url(#mask-10)">
                                                    <mask id="mask-12" fill="white">
                                                        <use xlink:href="#path-11"></use>
                                                    </mask>
                                                    <g id="Rectangle-path"></g>
                                                    <rect id="Rectangle-path" fill="#000000" fill-rule="nonzero" mask="url(#mask-12)" x="-6.83" y="-7.06" width="35.75" height="39"></rect>
                                                </g>
                                            </g>
                                        </g>
                                    </g>
                                </g>
                            </g>
                        </g>
                    </g>
                </g>
                <g transform="translate(57.000000, 23.000000)" fill="#000000" fill-rule="nonzero" id="Shape">
                    <polygon points="8.18307692 13.38 1.82769231 3 1.82769231 13.395 0.193846154 13.395 0.193846154 0.645 2.36769231 0.645 8.25230769 10.425 8.25230769 0.645 9.87230769 0.645 9.87230769 13.395"></polygon>
                    <polygon points="14.4138462 13.38 14.4138462 0.63 21.5723077 0.63 21.5723077 2.265 16.0338462 2.265 16.0338462 6.18 21.0461538 6.18 21.0461538 7.845 16.0338462 7.845 16.0338462 11.745 21.5723077 11.745 21.5723077 13.38"></polygon>
                    <polygon points="38.7692308 0.63 40.4446154 0.63 37.0938462 13.38 35.4184615 13.38 32.3446154 3.03 29.3123077 13.38 27.6923077 13.38 24.2861538 0.63 25.9615385 0.63 28.5507692 10.605 31.5138462 0.63 33.2169231 0.63 36.2492308 10.71"></polygon>
                    <path d="M52.7261538,8.16 L50.9676923,8.16 L50.9676923,13.38 L49.32,13.38 L49.32,0.63 L53.7646154,0.63 C54.7181649,0.570644836 55.6509084,0.947738754 56.3354337,1.66934256 C57.0199591,2.39094637 57.3933664,3.39075307 57.3646154,4.425 C57.4009119,6.24051076 56.1733895,7.79626624 54.5123077,8.04 L57.2815385,13.38 L55.3846154,13.38 L52.7261538,8.16 Z M53.46,6.585 C54.238721,6.68390653 55.0006483,6.28945675 55.4187879,5.57093545 C55.8369275,4.85241415 55.8369275,3.93758585 55.4187879,3.21906455 C55.0006483,2.50054325 54.238721,2.10609347 53.46,2.205 L50.9676923,2.205 L50.9676923,6.585 L53.46,6.585 Z"></path>
                    <polygon points="61.1584615 13.38 61.1584615 0.63 68.3169231 0.63 68.3169231 2.265 62.7784615 2.265 62.7784615 6.18 67.8461538 6.18 67.8461538 7.845 62.8338462 7.845 62.8338462 11.745 68.3723077 11.745 68.3723077 13.38"></polygon>
                    <polygon points="72.1661538 13.38 72.1661538 0.63 73.8 0.63 73.8 11.73 79.3384615 11.73 79.3384615 13.38"></polygon>
                    <polygon points="82.6338462 13.38 82.6338462 0.63 89.7923077 0.63 89.7923077 2.265 84.2538462 2.265 84.2538462 6.18 89.2661538 6.18 89.2661538 7.845 84.2538462 7.845 84.2538462 11.745 89.7923077 11.745 89.7923077 13.38"></polygon>
                    <path d="M100.564615,9.81 L95.3446154,9.81 L94.0984615,13.38 L92.3538462,13.38 L97.0338462,0.63 L98.9169231,0.63 L103.596923,13.38 L101.838462,13.38 L100.564615,9.81 Z M95.9261538,8.175 L99.9830769,8.175 L97.9338462,2.46 L95.9261538,8.175 Z"></path>
                    <path d="M112.513846,4.08 C112.317603,2.77193029 111.243085,1.83421407 110.021538,1.905 C109.457614,1.84693266 108.896076,2.03924014 108.465431,2.43791315 C108.034786,2.83658616 107.771896,3.40749932 107.736923,4.02 C107.7376,4.96795807 108.391285,5.76624528 109.26,5.88 L111.018462,6.285 C112.721331,6.48058322 114.025432,8.01537185 114.064615,9.87 C114.008882,10.9621995 113.544713,11.9826326 112.779181,12.6959095 C112.013649,13.4091863 111.012868,13.7537075 110.007692,13.65 C107.839335,13.8642525 105.89926,12.192107 105.604615,9.855 L107.155385,9.315 C107.24452,10.8868463 108.471728,12.0966687 109.924615,12.045 C111.558462,12.045 112.347692,11.13 112.347692,10.02 C112.302609,8.97575986 111.550687,8.12910723 110.589231,8.04 L108.913846,7.635 C107.282351,7.42969499 106.050761,5.93433388 106.047692,4.155 C106.181114,1.96292262 107.898035,0.282282148 109.924615,0.36 C111.805238,0.155579435 113.525332,1.52080509 113.912308,3.525 L112.513846,4.08 Z"></path>
                    <polygon points="117.830769 13.38 117.830769 0.63 124.989231 0.63 124.989231 2.265 119.450769 2.265 119.450769 6.18 124.476923 6.18 124.476923 7.845 119.450769 7.845 119.450769 11.745 124.989231 11.745 124.989231 13.38"></polygon>
                </g>
            </g>
        </g>
    </g>
</svg>